<svg id="Layer_1" data-name="Layer 1" xmlns="http://www.w3.org/2000/svg" height="25px" viewBox="0 0 16 16"><defs><style>.cls-1{fill:#172b4d;}</style></defs><path class="cls-1" d="M10.28,7.65H2.43A2.24,2.24,0,0,1,.19,5.4V2.47A2.24,2.24,0,0,1,2.43.23h7.85a2.25,2.25,0,0,1,2.25,2.24V5.4A2.25,2.25,0,0,1,10.28,7.65ZM2.43,2.09a.38.38,0,0,0-.38.38V5.4a.38.38,0,0,0,.38.39h7.85a.39.39,0,0,0,.39-.39V2.47a.39.39,0,0,0-.39-.38Z"/><path class="cls-1" d="M13.57,15.77H5.72a2.25,2.25,0,0,1-2.25-2.24V10.6A2.25,2.25,0,0,1,5.72,8.35h7.85a2.24,2.24,0,0,1,2.24,2.25v2.93A2.24,2.24,0,0,1,13.57,15.77ZM5.72,10.21a.39.39,0,0,0-.39.39v2.93a.39.39,0,0,0,.39.38h7.85a.38.38,0,0,0,.38-.38V10.6a.38.38,0,0,0-.38-.39Z"/></svg>