<svg id="Layer_1" data-name="Layer 1" xmlns="http://www.w3.org/2000/svg" viewBox="0 0 13.61 13.53"><defs><style>.cls-1{fill:#2f27d8;}</style></defs><path class="cls-1" d="M10.18,7.56H3.35a2,2,0,0,1-2-1.95V3.06a2,2,0,0,1,2-1.95h6.83a2,2,0,0,1,2,2V5.61A2,2,0,0,1,10.18,7.56ZM3.35,2.72A.34.34,0,0,0,3,3.06V5.61A.34.34,0,0,0,3.35,6h6.83a.34.34,0,0,0,.34-.34V3.06a.34.34,0,0,0-.34-.34Z" transform="translate(-1.39 -1.11)"/><path class="cls-1" d="M13,14.64H6.21a2,2,0,0,1-2-2V10.13a2,2,0,0,1,2-2H13a2,2,0,0,1,2,2v2.55A2,2,0,0,1,13,14.64ZM6.21,9.8a.34.34,0,0,0-.34.33v2.55a.34.34,0,0,0,.34.34H13a.34.34,0,0,0,.34-.34V10.13A.34.34,0,0,0,13,9.8Z" transform="translate(-1.39 -1.11)"/></svg>